HIERARCHY
ROOT Hips
{
	OFFSET 0.000000 0.000000 0.000000
	CHANNELS 6 Xposition Yposition Zposition Zrotation Yrotation Xrotation 
	JOINT LHipJoint
	{
		OFFSET 0.000000 0.000000 0.000000
		CHANNELS 3 Zrotation Yrotation Xrotation
		JOINT LeftUpLeg
		{
			OFFSET 1.363060 -1.794630 0.839290
			CHANNELS 3 Zrotation Yrotation Xrotation
			JOINT LeftLeg
			{
				OFFSET 2.448110 -6.726130 0.000000
				CHANNELS 3 Zrotation Yrotation Xrotation
				JOINT LeftFoot
				{
					OFFSET 2.562200 -7.039590 0.000000
					CHANNELS 3 Zrotation Yrotation Xrotation
					JOINT LeftToeBase
					{
						OFFSET 0.157640 -0.433110 2.322550
						CHANNELS 3 Zrotation Yrotation Xrotation
						End Site
						{
							OFFSET 0.000000 0.000000 0.000000
						}
					}
				}
			}
		}
	}
	JOINT RHipJoint
	{
		OFFSET 0.000000 0.000000 0.000000
		CHANNELS 3 Zrotation Yrotation Xrotation
		JOINT RightUpLeg
		{
			OFFSET -1.305520 -1.794630 0.839290
			CHANNELS 3 Zrotation Yrotation Xrotation
			JOINT RightLeg
			{
				OFFSET -2.542530 -6.985550 0.000000
				CHANNELS 3 Zrotation Yrotation Xrotation
				JOINT RightFoot
				{
					OFFSET -2.568260 -7.056230 0.000000
					CHANNELS 3 Zrotation Yrotation Xrotation
					JOINT RightToeBase
					{
						OFFSET -0.164730 -0.452590 2.363150
						CHANNELS 3 Zrotation Yrotation Xrotation
						End Site
						{
							OFFSET 0.000000 0.000000 0.000000
						}
					}
				}
			}
		}
	}
	JOINT LowerBack
	{
		OFFSET 0.000000 0.000000 0.000000
		CHANNELS 3 Zrotation Yrotation Xrotation
		JOINT Spine
		{
			OFFSET 0.028270 2.035590 -0.193380
			CHANNELS 3 Zrotation Yrotation Xrotation
			JOINT Spine1
			{
				OFFSET 0.056720 2.048850 -0.042750
				CHANNELS 3 Zrotation Yrotation Xrotation
				JOINT Neck
				{
					OFFSET 0.000000 0.000000 0.000000
					CHANNELS 3 Zrotation Yrotation Xrotation
					JOINT Neck1
					{
						OFFSET -0.054170 1.746240 0.172020
						CHANNELS 3 Zrotation Yrotation Xrotation
						JOINT Head
						{
							OFFSET 0.104070 1.761360 -0.123970
							CHANNELS 3 Zrotation Yrotation Xrotation
							End Site
							{
								OFFSET 0.000000 0.000000 0.000000
							}
						}
					}
				}
				JOINT LeftShoulder
				{
					OFFSET 0.000000 0.000000 0.000000
					CHANNELS 3 Zrotation Yrotation Xrotation
					JOINT LeftArm
					{
						OFFSET 3.362410 1.200890 -0.311210
						CHANNELS 3 Zrotation Yrotation Xrotation
						JOINT LeftForeArm
						{
							OFFSET 4.983000 -0.000000 -0.000000
							CHANNELS 3 Zrotation Yrotation Xrotation
							JOINT LeftHand
							{
								OFFSET 3.483560 -0.000000 -0.000000
								CHANNELS 3 Zrotation Yrotation Xrotation
								JOINT LeftFingerBase
								{
									OFFSET 0.000000 0.000000 0.000000
									CHANNELS 3 Zrotation Yrotation Xrotation
									JOINT LeftHandIndex1
									{
										OFFSET 0.715260 -0.000000 -0.000000
										CHANNELS 3 Zrotation Yrotation Xrotation
										End Site
										{
											OFFSET 0.000000 0.000000 0.000000
										}
									}
								}
								JOINT LThumb
								{
									OFFSET 0.000000 0.000000 0.000000
									CHANNELS 3 Zrotation Yrotation Xrotation
									End Site
									{
										OFFSET 0.000000 0.000000 0.000000
									}
								}
							}
						}
					}
				}
				JOINT RightShoulder
				{
					OFFSET 0.000000 0.000000 0.000000
					CHANNELS 3 Zrotation Yrotation Xrotation
					JOINT RightArm
					{
						OFFSET -3.136600 1.374050 -0.404650
						CHANNELS 3 Zrotation Yrotation Xrotation
						JOINT RightForeArm
						{
							OFFSET -5.241900 -0.000000 -0.000000
							CHANNELS 3 Zrotation Yrotation Xrotation
							JOINT RightHand
							{
								OFFSET -3.444170 -0.000000 -0.000000
								CHANNELS 3 Zrotation Yrotation Xrotation
								JOINT RightFingerBase
								{
									OFFSET 0.000000 0.000000 0.000000
									CHANNELS 3 Zrotation Yrotation Xrotation
									JOINT RightHandIndex1
									{
										OFFSET -0.622530 -0.000000 -0.000000
										CHANNELS 3 Zrotation Yrotation Xrotation
										End Site
										{
											OFFSET 0.000000 0.000000 0.000000
										}
									}
								}
								JOINT RThumb
								{
									OFFSET 0.000000 0.000000 0.000000
									CHANNELS 3 Zrotation Yrotation Xrotation
									End Site
									{
										OFFSET 0.000000 0.000000 0.000000
									}
								}
							}
						}
					}
				}
			}
		}
	}
}
MOTION
Frames: 12
Frame Time: 0.008333
-4.724121 14.848382 -0.855073 -158.771706 -84.616744 -138.839610 -8.939117 -2.386952 1.615198 -3.550409 -1.033504 -101.567562 -1.924104 5.883373 54.609127 3.446273 10.260624 -16.145371 -0.568500 -0.000000 -46.154600 6.964231 1.843002 3.490821 3.597861 16.581155 -100.576599 0.846099 -4.833321 58.511855 -3.391960 -7.123670 -19.920685 0.921000 -0.000001 -53.734100 2.826300 -0.916490 0.911102 -0.280902 -1.053810 -3.559802 -5.564873 -1.104502 -3.727346 9.820055 -0.994151 -5.871741 -3.479126 -0.228312 -0.447879 0.000000 0.000000 0.000000 5.176184 3.116351 2.837257 -66.483015 -10.683556 -6.049374 -179.857897 -82.284104 179.860138 15.604563 -5.621420 -0.873920 -0.295559 0.642771 0.000000 0.000000 0.000000 0.000000 0.000000 0.000000 0.000000 12.098968 3.577752 1.129650 69.696209 15.694025 2.053716 -179.929657 79.137321 179.856019 -16.801015 19.513277 -3.082573 0.242611 -0.834980 0.000000 0.000000 0.000000 0.000000 0.000000 0.000000 0.000000 
-4.718514 14.850018 -0.874195 -154.733480 -84.565614 -143.671531 -8.925985 -2.423563 1.556364 -3.019767 -0.544387 -100.905599 -1.774223 5.892576 55.145025 3.495742 10.555803 -16.288373 -0.626399 -0.000000 -46.231300 6.914727 1.969013 3.289994 4.163397 16.817226 -99.580428 0.796478 -4.814424 59.018400 -3.454868 -7.364568 -20.280209 1.030700 -0.000000 -53.598700 3.430273 -0.908750 1.148966 -0.162598 -1.062632 -3.489847 -5.695690 -1.117848 -3.680826 10.160619 -1.131760 -6.047069 -3.520027 -0.229669 -0.488238 0.000000 0.000000 0.000000 5.243025 3.034709 2.909097 -66.706208 -10.023067 -6.274672 -179.951216 -85.021305 179.860944 15.909658 -5.539931 -0.875253 -0.280141 0.619728 0.000000 0.000000 0.000000 0.000000 0.000000 0.000000 0.000000 12.835016 3.439093 1.168517 69.850639 15.489873 2.137534 -179.931618 80.789556 179.860593 -16.621700 19.868665 -3.100398 0.233155 -0.821650 0.000000 0.000000 0.000000 0.000000 0.000000 0.000000 0.000000 
-4.714357 14.853048 -0.892352 -150.207542 -84.522949 -149.056032 -8.872319 -2.457025 1.488561 -2.495471 -0.054266 -100.160367 -1.626405 5.889902 55.694621 3.540608 10.840926 -16.446695 -0.691600 0.000000 -46.270500 6.917291 2.089348 3.088932 4.812419 17.003847 -98.495480 0.761967 -4.813400 59.508693 -3.503451 -7.557338 -20.653096 1.143400 -0.000001 -53.471800 4.113078 -0.899804 1.390864 -0.024806 -1.071083 -3.414150 -5.828347 -1.130918 -3.614855 10.473696 -1.299907 -6.232720 -3.549557 -0.230205 -0.529480 0.000000 0.000000 0.000000 5.295814 2.992789 2.984543 -66.940598 -9.428237 -6.411627 179.971849 -87.952147 179.862233 16.212414 -5.453577 -0.875283 -0.265492 0.596254 0.000000 0.000000 0.000000 0.000000 0.000000 0.000000 0.000000 13.482661 3.266888 1.196737 70.063023 15.260919 2.178053 -179.928976 82.518258 179.864745 -16.483877 20.221954 -3.124622 0.224059 -0.807562 0.000000 0.000000 0.000000 0.000000 0.000000 0.000000 0.000000 
-4.711715 14.857912 -0.909439 -145.309310 -84.510077 -154.882796 -8.779366 -2.504190 1.406971 -1.984019 0.418281 -99.315592 -1.482563 5.871521 56.254265 3.575111 11.095054 -16.615413 -0.762800 0.000000 -46.286300 6.972348 2.186852 2.886752 5.544307 17.109747 -97.317058 0.743741 -4.834138 59.975304 -3.536028 -7.695244 -21.037815 1.256799 -0.000000 -53.392401 4.871853 -0.904274 1.641920 0.133942 -1.092784 -3.331696 -5.959578 -1.157476 -3.530972 10.754895 -1.488277 -6.424872 -3.569323 -0.230060 -0.570769 0.000000 0.000000 0.000000 5.332967 2.983134 3.065366 -67.191088 -8.888204 -6.466892 -0.089131 -88.956571 -0.135856 16.492829 -5.350622 -0.871107 -0.251636 0.572375 0.000000 0.000000 0.000000 0.000000 0.000000 0.000000 0.000000 14.042840 3.065107 1.213861 70.318171 15.011357 2.170606 -179.922391 84.320197 179.868348 -16.406547 20.546421 -3.155148 0.215621 -0.792350 -0.000000 0.000000 0.000000 0.000000 0.000000 0.000000 0.000000 
-4.710884 14.863568 -0.927445 -140.788308 -84.527363 -160.391307 -8.672667 -2.577608 1.315417 -1.533321 0.846470 -98.389733 -1.349237 5.844489 56.826874 3.596020 11.303234 -16.788824 -0.837600 0.000001 -46.304100 7.057489 2.242952 2.699066 6.292396 17.116316 -96.099215 0.733183 -4.872313 60.436449 -3.553093 -7.775076 -21.435942 1.368299 0.000000 -53.359300 5.620128 -0.934860 1.872920 0.293274 -1.139114 -3.249419 -6.087828 -1.208826 -3.423823 11.014196 -1.708483 -6.624939 -3.582673 -0.229495 -0.611914 0.000000 0.000000 0.000000 5.384351 3.000064 3.149961 -67.454133 -8.380697 -6.429972 -0.136404 -85.740832 -0.133244 16.741119 -5.224030 -0.861022 -0.238967 0.548129 -0.000000 0.000000 0.000000 0.000000 0.000000 0.000000 0.000000 14.543261 2.815262 1.220143 70.611286 14.743267 2.128827 -179.913561 86.189025 179.871358 -16.406451 20.802884 -3.190074 0.208329 -0.775614 0.000000 0.000000 0.000000 0.000000 0.000000 0.000000 0.000000 
-4.711901 14.870615 -0.945938 -136.736543 -84.571729 -165.495633 -8.570719 -2.680369 1.213493 -1.138703 1.237874 -97.378908 -1.225517 5.813266 57.415738 3.599598 11.453463 -16.954682 -0.912000 0.000000 -46.364100 7.154398 2.256153 2.517924 7.059885 17.019940 -94.823657 0.731274 -4.923100 60.884462 -3.554423 -7.795004 -21.844966 1.476401 0.000000 -53.381001 6.338109 -0.991837 2.091200 0.448281 -1.210037 -3.166415 -6.209793 -1.284710 -3.295327 11.244811 -1.956002 -6.831007 -3.591914 -0.228672 -0.652736 0.000000 0.000000 0.000000 5.440995 3.041619 3.237560 -67.733019 -7.890647 -6.309585 -0.173725 -82.445768 -0.129880 16.944122 -5.059280 -0.842328 -0.227459 0.523424 -0.000000 0.000000 0.000000 0.000000 0.000000 0.000000 0.000000 14.988569 2.521595 1.217487 70.921494 14.467324 2.053864 -179.903733 88.121383 179.873821 -16.487367 20.965626 -3.226600 0.202340 -0.757165 -0.000000 0.000000 0.000000 0.000000 0.000000 0.000000 0.000000 
-4.715043 14.879218 -0.964925 -133.253204 -84.625943 -170.096093 -8.488111 -2.808142 1.101680 -0.797808 1.611964 -96.291602 -1.110255 5.784625 58.030361 3.583511 11.539840 -17.096081 -0.980500 0.000000 -46.516600 7.248765 2.231341 2.340115 7.841927 16.833851 -93.480221 0.737453 -4.979669 61.313799 -3.541464 -7.757853 -22.265349 1.580200 -0.000001 -53.429600 7.004095 -1.068689 2.298819 0.592530 -1.299036 -3.081935 -6.324132 -1.378235 -3.142988 11.443693 -2.241426 -7.046847 -3.599553 -0.227719 -0.694614 0.000000 0.000000 0.000000 5.496346 3.123905 3.324932 -68.025598 -7.417415 -6.097196 -0.205838 -79.107907 -0.125780 17.099421 -4.851910 -0.814221 -0.217230 0.498230 -0.000000 0.000000 0.000000 0.000000 0.000000 0.000000 0.000000 15.390516 2.175634 1.207638 71.229509 14.203747 1.961129 0.105973 89.885017 -0.124151 -16.650389 21.005712 -3.260623 0.197903 -0.736840 0.000000 0.000000 0.000000 0.000000 0.000000 0.000000 0.000000 
-4.720302 14.889482 -0.984894 -130.630459 -84.667865 -173.897906 -8.435493 -2.944003 0.981975 -0.518972 1.979011 -95.142925 -1.001758 5.765722 58.679260 3.548828 11.571096 -17.188803 -1.036500 0.000000 -46.807700 7.330347 2.186342 2.163924 8.615090 16.567854 -92.070046 0.748840 -5.034281 61.725205 -3.515586 -7.668697 -22.692616 1.678100 -0.000001 -53.514600 7.582278 -1.157687 2.494636 0.715978 -1.398313 -2.997654 -6.429231 -1.481421 -2.969579 11.609847 -2.558148 -7.269758 -3.607698 -0.226809 -0.736792 0.000000 0.000000 0.000000 5.557440 3.245394 3.409933 -68.335700 -6.930434 -5.805650 -0.237108 -75.782238 -0.120955 17.196877 -4.585707 -0.773705 -0.208124 0.472449 -0.000000 0.000000 0.000000 0.000000 0.000000 0.000000 0.000000 15.759276 1.788288 1.193156 71.524666 13.950668 1.852981 0.114983 87.837784 -0.122359 -16.879372 20.918511 -3.287841 0.194902 -0.714846 0.000000 0.000000 0.000000 0.000000 0.000000 0.000000 0.000000 
-4.727819 14.901478 -1.006213 -129.001260 -84.676945 -176.762620 -8.413254 -3.069703 0.855349 -0.304180 2.353513 -93.951067 -0.896739 5.761432 59.372820 3.498337 11.564578 -17.203139 -1.073200 0.000000 -47.277900 7.398807 2.140189 1.988703 9.364324 16.238057 -90.591186 0.763520 -5.080660 62.115596 -3.479024 -7.535992 -23.123441 1.769500 -0.000000 -53.629200 8.058320 -1.248933 2.679592 0.814011 -1.498165 -2.914184 -6.524624 -1.584450 -2.777111 11.741830 -2.902381 -7.498334 -3.617834 -0.226063 -0.778929 0.000000 0.000000 0.000000 5.625958 3.411154 3.489810 -68.665772 -6.407224 -5.443430 -0.271427 -72.519714 -0.115465 17.231726 -4.249999 -0.719378 -0.200003 0.446050 -0.000000 0.000000 0.000000 0.000000 0.000000 0.000000 0.000000 16.101732 1.368416 1.176165 71.797498 13.707564 1.733413 0.123419 85.743781 -0.120571 -17.151447 20.708716 -3.303655 0.193140 -0.691466 -0.000000 0.000000 0.000000 0.000000 0.000000 0.000000 0.000000 
-4.737524 14.915436 -1.028976 -128.335543 -84.642180 -178.717529 -8.415658 -3.174203 0.720517 -0.150703 2.748122 -92.732720 -0.790614 5.773854 60.123173 3.436126 11.544554 -17.106113 -1.084100 0.000001 -47.953700 7.459085 2.105363 1.813664 10.082354 15.858175 -89.038362 0.780572 -5.114881 62.477851 -3.434434 -7.370008 -23.555457 1.854001 -0.000000 -53.761600 8.435638 -1.333986 2.858457 0.887028 -1.590199 -2.830384 -6.610035 -1.678821 -2.565938 11.837778 -3.278804 -7.733810 -3.630325 -0.225486 -0.821553 0.000000 0.000000 0.000000 5.700325 3.630728 3.560972 -69.017337 -5.841111 -5.011388 -0.311878 -69.362144 -0.109407 17.201696 -3.840213 -0.651041 -0.192720 0.419105 -0.000000 0.000000 0.000000 0.000000 0.000000 0.000000 0.000000 16.420202 0.915570 1.158362 72.038912 13.481732 1.610257 0.132251 83.606581 -0.118522 -17.438895 20.396246 -3.304762 0.192364 -0.667055 -0.000000 0.000000 0.000000 0.000000 0.000000 0.000000 0.000000 
-4.749412 14.931518 -1.053689 -128.718138 -84.557868 -179.669347 -8.438130 -3.243538 0.579205 -0.068898 3.160343 -91.507542 -0.679642 5.804131 60.934186 3.369054 11.546213 -16.860817 -1.063200 0.000000 -48.836001 7.515649 2.095239 1.641171 10.746401 15.434282 -87.420440 0.797147 -5.132795 62.809287 -3.384256 -7.182013 -23.981272 1.930801 0.000000 -53.932500 8.702277 -1.407122 3.027749 0.931893 -1.668772 -2.749550 -6.685398 -1.759162 -2.344312 11.897238 -3.667857 -7.966528 -3.645478 -0.225222 -0.861695 0.000000 0.000000 0.000000 5.789268 3.876510 3.622460 -69.395393 -5.183469 -4.541371 -0.359573 -66.368729 -0.102872 17.098478 -3.345882 -0.567495 -0.185972 0.391680 -0.000000 0.000000 0.000000 0.000000 0.000000 0.000000 0.000000 16.714336 0.453106 1.142653 72.250408 13.246069 1.464220 0.142993 81.437255 -0.115985 -17.705048 20.019414 -3.289763 0.192033 -0.642166 -0.000000 0.000000 0.000000 0.000000 0.000000 0.000000 0.000000 
-4.763999 14.950385 -1.080827 -130.138367 -84.421671 -179.623891 -8.477536 -3.270113 0.433456 -0.070578 3.591987 -90.288266 -0.561515 5.852093 61.801083 3.303713 11.602911 -16.431262 -1.004400 0.000000 -49.906300 7.571577 2.114188 1.475251 11.342227 14.972834 -85.737366 0.812336 -5.130288 63.097777 -3.330632 -6.979447 -24.398065 1.999900 0.000000 -54.119400 8.854190 -1.464119 3.180879 0.947310 -1.730089 -2.675476 -6.752934 -1.822025 -2.119286 11.922421 -4.046131 -8.185123 -3.665487 -0.225586 -0.895772 0.000000 0.000000 0.000000 5.886204 4.125636 3.673712 -69.788744 -4.398986 -4.056796 -0.415581 -63.581316 -0.095949 16.922286 -2.776118 -0.471537 -0.179613 0.363874 -0.000000 0.000000 0.000000 0.000000 0.000000 0.000000 0.000000 16.993327 0.004926 1.131165 72.425625 12.971573 1.274927 0.157719 79.242494 -0.112771 -17.921498 19.617643 -3.259652 0.191739 -0.617160 -0.000000 0.000000 0.000000 0.000000 0.000000 0.000000 0.000000 
